# xmcd
#
# Track frame offsets:
#	150
#	3387
#	23525
#	43454
#	62244
#	87172
#	93010
#	115708
#	134297
#
# Disc length: 2060 seconds
#
# Revision: 4
# Processed by: cddbd v1.5PL3 Copyright (c) Steve Scherf et al.
# Submitted via: CDex 1.50Beta5
#
DISCID=68080a09
DTITLE=椿 - 彼方へ…
DYEAR=2002
DGENRE=Pop
TTITLE0=Intro
TTITLE1=Share My World
TTITLE2=白夜 Fart. Tony Touch
TTITLE3=Numbers
TTITLE4=Corsage
TTITLE5=Room
TTITLE6=もうひとつの季節
TTITLE7=From You
TTITLE8=彼方へ…
EXTD=
EXTT0=
EXTT1=
EXTT2=
EXTT3=
EXTT4=
EXTT5=
EXTT6=
EXTT7=
EXTT8=
PLAYORDER=
